<?xml version="1.0" encoding="UTF-8"?>
<svg id="Layer_1" data-name="Layer 1" xmlns="http://www.w3.org/2000/svg" width="282" height="308" viewBox="0 0 282 308">
  <g>
    <path d="M141.52,238.01c-65.34,0-118.5-53.16-118.5-118.5S76.18,1.01,141.52,1.01s118.5,53.16,118.5,118.5-53.16,118.5-118.5,118.5Zm0-225c-58.72,0-106.5,47.78-106.5,106.5s47.78,106.5,106.5,106.5,106.5-47.78,106.5-106.5S200.25,13.01,141.52,13.01Z"/>
    <path d="M141.52,211.79c-50.88,0-92.27-41.39-92.27-92.27S90.65,27.24,141.52,27.24s92.27,41.39,92.27,92.27c0,10.99-1.91,21.74-5.68,31.96l-8.96-3.31c3.38-9.15,5.09-18.79,5.09-28.65,0-45.62-37.11-82.73-82.73-82.73S58.8,73.9,58.8,119.51s37.11,82.73,82.73,82.73c13.12,0,26.13-3.14,37.73-9.08V105.91l-34.26-33.91-41.19,35.33v52.65h18.86v-41.8h35.31v51.34h-63.71V102.94l51.2-43.91,43.34,42.9v96.91l-3.65,2.01c-13.35,7.17-28.42,10.94-43.62,10.94Zm-9.32-51.81h16.22v-32.25h-16.22v32.25Z"/>
  </g>
  <g>
    <g>
      <path d="M136.98,307.22c-2.58,0-4.88-.56-6.91-1.67-2.02-1.12-3.61-2.65-4.76-4.59s-1.72-4.18-1.72-6.69,.57-4.75,1.72-6.69c1.15-1.94,2.73-3.47,4.76-4.57,2.02-1.1,4.33-1.65,6.91-1.65,2.29,0,4.34,.46,6.14,1.36s3.2,2.25,4.18,4.04l-3.49,2.25c-.83-1.24-1.84-2.16-3.04-2.75s-2.48-.88-3.85-.88c-1.66,0-3.14,.37-4.45,1.1-1.31,.73-2.34,1.76-3.11,3.08-.76,1.32-1.15,2.89-1.15,4.71s.38,3.39,1.15,4.73c.77,1.34,1.8,2.38,3.11,3.11,1.31,.73,2.79,1.1,4.45,1.1,1.37,0,2.65-.29,3.85-.88,1.2-.59,2.21-1.51,3.04-2.75l3.49,2.2c-.99,1.75-2.38,3.1-4.18,4.04-1.8,.94-3.85,1.41-6.14,1.41Z"/>
      <path d="M163.71,307.22c-2.55,0-4.81-.56-6.79-1.67-1.98-1.12-3.54-2.65-4.69-4.61-1.15-1.96-1.72-4.18-1.72-6.67s.57-4.75,1.72-6.69c1.15-1.94,2.71-3.47,4.69-4.57,1.98-1.1,4.24-1.65,6.79-1.65s4.77,.55,6.77,1.65c1.99,1.1,3.55,2.61,4.69,4.54,1.13,1.93,1.7,4.17,1.7,6.72s-.57,4.75-1.7,6.69c-1.13,1.94-2.69,3.47-4.69,4.59-1.99,1.12-4.25,1.67-6.77,1.67Zm0-4.02c1.63,0,3.08-.37,4.38-1.1,1.29-.73,2.3-1.78,3.04-3.13,.73-1.35,1.1-2.92,1.1-4.71s-.37-3.39-1.1-4.71c-.73-1.32-1.75-2.35-3.04-3.08-1.29-.73-2.75-1.1-4.38-1.1s-3.08,.37-4.35,1.1c-1.28,.73-2.29,1.76-3.06,3.08-.76,1.32-1.15,2.89-1.15,4.71s.38,3.35,1.15,4.71c.77,1.36,1.79,2.4,3.06,3.13,1.27,.73,2.73,1.1,4.35,1.1Z"/>
      <path d="M183.21,306.94v-35.48h4.59v35.48h-4.59Z"/>
      <path d="M196.55,306.94v-35.48h4.59v35.48h-4.59Z"/>
      <path d="M221.18,307.22c-2.71,0-5.09-.56-7.15-1.67-2.06-1.12-3.65-2.65-4.78-4.59s-1.7-4.18-1.7-6.69,.55-4.75,1.65-6.69c1.1-1.94,2.61-3.47,4.54-4.57,1.93-1.1,4.1-1.65,6.53-1.65s4.62,.54,6.5,1.63c1.88,1.08,3.35,2.61,4.42,4.57,1.07,1.96,1.6,4.25,1.6,6.86,0,.19,0,.42-.02,.67-.02,.26-.04,.49-.07,.72h-21.56v-3.3h19.17l-1.86,1.15c.03-1.63-.3-3.08-1-4.35-.7-1.27-1.67-2.27-2.89-2.99-1.23-.72-2.65-1.08-4.28-1.08s-3.01,.36-4.26,1.08c-1.24,.72-2.22,1.72-2.92,3.01-.7,1.29-1.05,2.77-1.05,4.42v.76c0,1.69,.39,3.2,1.17,4.52,.78,1.32,1.87,2.35,3.28,3.08,1.4,.73,3.01,1.1,4.83,1.1,1.5,0,2.86-.25,4.09-.76,1.23-.51,2.3-1.27,3.23-2.29l2.53,2.96c-1.15,1.34-2.58,2.36-4.28,3.06-1.71,.7-3.61,1.05-5.71,1.05Z"/>
      <path d="M250.2,307.22c-2.58,0-4.88-.56-6.91-1.67-2.02-1.12-3.61-2.65-4.76-4.59s-1.72-4.18-1.72-6.69,.57-4.75,1.72-6.69c1.15-1.94,2.73-3.47,4.76-4.57,2.02-1.1,4.33-1.65,6.91-1.65,2.29,0,4.34,.46,6.14,1.36s3.2,2.25,4.18,4.04l-3.49,2.25c-.83-1.24-1.84-2.16-3.04-2.75s-2.48-.88-3.85-.88c-1.66,0-3.14,.37-4.45,1.1-1.31,.73-2.34,1.76-3.11,3.08-.76,1.32-1.15,2.89-1.15,4.71s.38,3.39,1.15,4.73c.77,1.34,1.8,2.38,3.11,3.11,1.31,.73,2.79,1.1,4.45,1.1,1.37,0,2.65-.29,3.85-.88,1.2-.59,2.21-1.51,3.04-2.75l3.49,2.2c-.99,1.75-2.38,3.1-4.18,4.04-1.8,.94-3.85,1.41-6.14,1.41Z"/>
      <path d="M263.15,285.37v-3.78h16.16v3.78h-16.16Zm12.34,21.85c-2.55,0-4.53-.69-5.93-2.06-1.4-1.37-2.1-3.33-2.1-5.88v-23.24h4.59v23.05c0,1.37,.34,2.42,1.03,3.16,.68,.73,1.67,1.1,2.94,1.1,1.43,0,2.63-.4,3.59-1.2l1.43,3.3c-.7,.61-1.54,1.05-2.51,1.34-.97,.29-1.98,.43-3.04,.43Z"/>
    </g>
    <g>
      <path d="M1.08,306.94v-40.16H10.37v32.59H30.51v7.57H1.08Z"/>
      <path d="M54.26,307.62c-3.1,0-5.98-.51-8.63-1.52-2.66-1.01-4.96-2.46-6.91-4.33-1.95-1.87-3.47-4.07-4.56-6.6-1.09-2.52-1.64-5.3-1.64-8.32s.54-5.79,1.64-8.32c1.09-2.52,2.62-4.72,4.59-6.6,1.97-1.87,4.27-3.32,6.91-4.33,2.64-1.01,5.53-1.52,8.66-1.52,3.48,0,6.63,.6,9.44,1.81s5.17,2.97,7.09,5.31l-5.97,5.51c-1.38-1.57-2.91-2.74-4.59-3.53-1.68-.78-3.52-1.18-5.51-1.18-1.87,0-3.6,.31-5.16,.92-1.57,.61-2.93,1.49-4.07,2.64s-2.04,2.51-2.67,4.07c-.63,1.57-.95,3.31-.95,5.22s.32,3.65,.95,5.22c.63,1.57,1.52,2.93,2.67,4.07s2.5,2.03,4.07,2.64c1.57,.61,3.29,.92,5.16,.92,1.99,0,3.82-.39,5.51-1.18,1.68-.78,3.21-1.98,4.59-3.59l5.97,5.51c-1.91,2.33-4.27,4.11-7.09,5.34s-5.98,1.84-9.5,1.84Z"/>
      <path d="M71.02,306.94l17.9-40.16h9.18l17.96,40.16h-9.75l-14.69-35.46h3.67l-14.75,35.46h-9.52Zm8.95-8.61l2.47-7.06h20.66l2.52,7.06h-25.65Z"/>
    </g>
  </g>
</svg>