<?xml version="1.0" encoding="UTF-8"?>
<svg id="Layer_1" data-name="Layer 1" xmlns="http://www.w3.org/2000/svg" width="718.57" height="238.8" viewBox="0 0 718.57 238.8">
  <g>
    <path d="M492.18,154.2c-4.05,0-7.66-.87-10.84-2.62-3.18-1.75-5.66-4.15-7.46-7.2-1.8-3.05-2.7-6.55-2.7-10.5s.9-7.45,2.7-10.5c1.8-3.05,4.29-5.44,7.46-7.16,3.17-1.73,6.79-2.59,10.84-2.59,3.6,0,6.81,.71,9.64,2.14,2.82,1.42,5.01,3.54,6.56,6.34l-5.48,3.53c-1.3-1.95-2.89-3.39-4.76-4.31-1.88-.92-3.89-1.39-6.04-1.39-2.6,0-4.93,.58-6.97,1.73-2.05,1.15-3.68,2.76-4.88,4.84-1.2,2.08-1.8,4.54-1.8,7.39s.6,5.33,1.8,7.42c1.2,2.1,2.82,3.73,4.88,4.88,2.05,1.15,4.37,1.73,6.97,1.73,2.15,0,4.16-.46,6.04-1.39,1.88-.92,3.46-2.36,4.76-4.31l5.48,3.45c-1.55,2.75-3.74,4.86-6.56,6.34-2.83,1.48-6.04,2.21-9.64,2.21Z"/>
    <path d="M534.1,154.2c-4,0-7.55-.87-10.65-2.62-3.1-1.75-5.55-4.16-7.35-7.24-1.8-3.08-2.7-6.56-2.7-10.46s.9-7.45,2.7-10.5c1.8-3.05,4.25-5.44,7.35-7.16,3.1-1.73,6.65-2.59,10.65-2.59s7.49,.86,10.61,2.59c3.12,1.72,5.58,4.1,7.35,7.12,1.77,3.03,2.66,6.54,2.66,10.54s-.89,7.45-2.66,10.5c-1.78,3.05-4.23,5.45-7.35,7.2-3.13,1.75-6.66,2.62-10.61,2.62Zm0-6.3c2.55,0,4.84-.57,6.86-1.73,2.02-1.15,3.61-2.79,4.76-4.91,1.15-2.12,1.72-4.59,1.72-7.39s-.58-5.31-1.72-7.39c-1.15-2.07-2.74-3.69-4.76-4.84s-4.31-1.73-6.86-1.73-4.83,.58-6.83,1.73c-2,1.15-3.6,2.76-4.8,4.84-1.2,2.08-1.8,4.54-1.8,7.39s.6,5.26,1.8,7.39c1.2,2.13,2.8,3.76,4.8,4.91,2,1.15,4.27,1.73,6.83,1.73Z"/>
    <path d="M564.7,153.75v-55.65h7.2v55.65h-7.2Z"/>
    <path d="M585.62,153.75v-55.65h7.2v55.65h-7.2Z"/>
    <path d="M624.25,154.2c-4.25,0-7.99-.87-11.21-2.62-3.22-1.75-5.73-4.15-7.5-7.2-1.78-3.05-2.66-6.55-2.66-10.5s.86-7.45,2.59-10.5c1.73-3.05,4.1-5.44,7.12-7.16,3.02-1.73,6.44-2.59,10.24-2.59s7.25,.85,10.2,2.55c2.95,1.7,5.26,4.09,6.94,7.16,1.67,3.07,2.51,6.66,2.51,10.76,0,.3-.01,.65-.04,1.05-.03,.4-.06,.78-.11,1.12h-33.82v-5.18h30.07l-2.92,1.8c.05-2.55-.48-4.83-1.58-6.83-1.1-2-2.61-3.56-4.54-4.69-1.93-1.12-4.16-1.69-6.71-1.69s-4.72,.56-6.67,1.69-3.48,2.7-4.58,4.72c-1.1,2.03-1.65,4.34-1.65,6.94v1.2c0,2.65,.61,5.01,1.84,7.09,1.22,2.08,2.94,3.69,5.14,4.84,2.2,1.15,4.73,1.73,7.58,1.73,2.35,0,4.49-.4,6.41-1.2s3.61-2,5.06-3.6l3.98,4.65c-1.8,2.1-4.04,3.7-6.71,4.8-2.67,1.1-5.66,1.65-8.96,1.65Z"/>
    <path d="M669.77,154.2c-4.05,0-7.66-.87-10.84-2.62-3.18-1.75-5.66-4.15-7.46-7.2-1.8-3.05-2.7-6.55-2.7-10.5s.9-7.45,2.7-10.5c1.8-3.05,4.29-5.44,7.46-7.16,3.17-1.73,6.79-2.59,10.84-2.59,3.6,0,6.81,.71,9.64,2.14,2.82,1.42,5.01,3.54,6.56,6.34l-5.47,3.53c-1.3-1.95-2.89-3.39-4.76-4.31-1.88-.92-3.89-1.39-6.04-1.39-2.6,0-4.93,.58-6.97,1.73-2.05,1.15-3.68,2.76-4.88,4.84-1.2,2.08-1.8,4.54-1.8,7.39s.6,5.33,1.8,7.42c1.2,2.1,2.82,3.73,4.88,4.88,2.05,1.15,4.38,1.73,6.97,1.73,2.15,0,4.16-.46,6.04-1.39,1.88-.92,3.46-2.36,4.76-4.31l5.47,3.45c-1.55,2.75-3.74,4.86-6.56,6.34-2.83,1.48-6.04,2.21-9.64,2.21Z"/>
    <path d="M690.1,119.92v-5.92h25.35v5.92h-25.35Zm19.35,34.28c-4,0-7.1-1.08-9.3-3.23-2.2-2.15-3.3-5.22-3.3-9.22v-36.45h7.2v36.15c0,2.15,.54,3.8,1.61,4.95s2.61,1.72,4.61,1.72c2.25,0,4.12-.62,5.62-1.88l2.25,5.17c-1.1,.95-2.41,1.65-3.94,2.1-1.53,.45-3.11,.67-4.76,.67Z"/>
  </g>
  <g>
    <path d="M279,153.75v-63h14.58v51.12h31.59v11.88h-46.17Z"/>
    <path d="M362.43,154.83c-4.86,0-9.38-.8-13.54-2.38-4.17-1.59-7.79-3.85-10.85-6.79-3.06-2.94-5.44-6.39-7.15-10.35s-2.57-8.31-2.57-13.05,.86-9.09,2.57-13.05,4.11-7.41,7.2-10.35c3.09-2.94,6.71-5.2,10.85-6.79,4.14-1.59,8.67-2.38,13.59-2.38,5.46,0,10.4,.95,14.81,2.83,4.41,1.89,8.11,4.67,11.11,8.33l-9.36,8.64c-2.16-2.46-4.56-4.3-7.2-5.54-2.64-1.23-5.52-1.84-8.64-1.84-2.94,0-5.64,.48-8.1,1.44-2.46,.96-4.59,2.34-6.39,4.14-1.8,1.8-3.19,3.93-4.19,6.39-.99,2.46-1.48,5.19-1.48,8.19s.5,5.73,1.48,8.19c.99,2.46,2.39,4.59,4.19,6.39,1.8,1.8,3.93,3.18,6.39,4.14,2.46,.96,5.16,1.44,8.1,1.44,3.12,0,6-.61,8.64-1.84,2.64-1.23,5.04-3.11,7.2-5.62l9.36,8.64c-3,3.66-6.7,6.45-11.11,8.37-4.41,1.92-9.38,2.88-14.9,2.88Z"/>
    <path d="M388.71,153.75l28.08-63h14.4l28.17,63h-15.3l-23.04-55.62h5.76l-23.13,55.62h-14.94Zm14.04-13.5l3.87-11.07h32.4l3.96,11.07h-40.23Z"/>
  </g>
  <path d="M118.5,238C53.16,238,0,184.84,0,119.5S53.16,1,118.5,1s118.5,53.16,118.5,118.5-53.16,118.5-118.5,118.5Zm0-225C59.78,13,12,60.78,12,119.5s47.78,106.5,106.5,106.5,106.5-47.78,106.5-106.5S177.22,13,118.5,13Z"/>
  <path d="M118.5,211.77c-50.88,0-92.27-41.39-92.27-92.27S67.62,27.23,118.5,27.23s92.27,41.39,92.27,92.27c0,10.99-1.91,21.74-5.68,31.96l-8.95-3.31c3.38-9.16,5.09-18.79,5.09-28.65,0-45.62-37.11-82.73-82.73-82.73S35.77,73.88,35.77,119.5s37.11,82.73,82.73,82.73c13.12,0,26.13-3.14,37.73-9.08V105.89l-34.26-33.91-41.19,35.33v52.65h18.86v-41.8h35.31v51.34h-63.72V102.93l51.2-43.91,43.34,42.9v96.91l-3.65,2.01c-13.35,7.17-28.42,10.94-43.62,10.94Zm-9.32-51.81h16.22v-32.25h-16.22v32.25Z"/>
</svg>